<svg xmlns="http://www.w3.org/2000/svg" width="161.971" height="36.77" viewBox="0 0 303.13 71.73"><defs><style>.cls-1{fill:#be2025;}.cls-2{fill:#fff;}</style></defs><title>Betsafe_white</title><g id="Layer_2" data-name="Layer 2"><g id="Layer_1-2" data-name="Layer 1"><path class="cls-1" d="M277.6,16.29a9.54,9.54,0,1,1,0-13.49,9.54,9.54,0,0,1,0,13.49"/><polygon class="cls-1" points="303.13 7.15 303.13 7.14 258.52 32.47 267.55 23.61 238.56 7.14 256.88 39.43 238.56 71.73 270.85 53.4 303.13 71.72 284.81 39.43 303.13 7.15 303.13 7.15"/><path class="cls-2" d="M10.42,53.71,0,57.8V9.37H10.83V25.31c2.25-2.93,5.59-4.63,10.22-4.63a17,17,0,0,1,12.19,5A18.56,18.56,0,0,1,39.1,39.34a18.56,18.56,0,0,1-6.41,14.37A16.58,16.58,0,0,1,21.25,58a14.18,14.18,0,0,1-10.83-4.29m8.45-5.45c5.52,0,9.46-3.88,9.46-9a9.09,9.09,0,0,0-9.12-9.05,8.82,8.82,0,0,0-8.85,9.19,8.63,8.63,0,0,0,8.51,8.85"/><path class="cls-2" d="M78.75,47.17C75.2,54.8,69.14,58.68,61,58.68a18.06,18.06,0,0,1-13.82-5.86,19.27,19.27,0,0,1-5.39-13.55,18.71,18.71,0,0,1,5.59-13.41,19.06,19.06,0,0,1,13.49-5.72c11.64,0,19.61,8.37,19.61,22v1.16H52.87c1,3.88,3.74,5.93,8.44,5.93a8,8,0,0,0,5.58-2ZM69.62,35.66c-1.29-3.75-4.36-5.79-8.65-5.79-4.49,0-7.7,2.32-8.45,5.79Z"/><path class="cls-2" d="M114.19,46.9v.34c0,2,1.64,3.48,4,3.48s3.68-1.16,3.68-3.21c0-3-2.93-2.86-7.5-4.29-6.32-2-9.39-5.38-9.39-10.9,0-7.14,5.24-12.18,14-12.18,7.56,0,12.39,4.28,12.81,11.23H122c-.42-2.38-1.3-3.41-3.21-3.41-2.11,0-3.34,1.23-3.34,3,0,2.52,2.25,3.13,6,4.16,7.49,2,11.24,4.9,11.24,11,0,7.35-5.79,12.66-14.64,12.66-8.18,0-13.22-4.43-14-11.85Z"/><path class="cls-2" d="M163.5,53.71A14.18,14.18,0,0,1,152.67,58a16.63,16.63,0,0,1-11.45-4.29,18.59,18.59,0,0,1-6.4-14.37,18.52,18.52,0,0,1,5.86-13.62,17,17,0,0,1,12.19-5c4.43,0,7.84,1.49,10.29,4.63V21.22h10.76V57.8Zm-8.45-5.45a8.63,8.63,0,0,0,8.51-8.85,8.88,8.88,0,0,0-8.92-9.19,9,9,0,0,0-9.06,9.05c0,5.11,4,9,9.47,9"/><path class="cls-2" d="M179.34,19.86c0-7.83,4.23-11.37,13.22-11.37.54,0,4.46.21,5.07.21v7.37L194,15.91c-3.27,0-4,1.09-4,4.43v.88h5.33V29.4H190V57.8H179.34Z"/><path class="cls-2" d="M83.77,9.4H94.33V21.17h5.33v8.18H94.33V46.86c0,3.33.75,4.43,4,4.43l3.65-.16v7.36c-.61,0-4.53.22-5.07.22-9,0-13.22-3.54-13.22-11.38,0-.41.06-37.93.06-37.93"/><path class="cls-2" d="M233.7,47.17c-3.54,7.63-9.6,11.51-17.77,11.51a18.08,18.08,0,0,1-13.83-5.86,19.26,19.26,0,0,1-5.38-13.55,18.7,18.7,0,0,1,5.58-13.41,19.06,19.06,0,0,1,13.49-5.72c11.65,0,19.61,8.37,19.61,22v1.16H207.82c1,3.88,3.75,5.93,8.44,5.93a8,8,0,0,0,5.59-2Zm-9.13-11.51c-1.29-3.75-4.35-5.79-8.64-5.79-4.5,0-7.7,2.32-8.46,5.79Z"/></g></g></svg>